<svg height="200px" width="200px" version="1.1" id="Layer_1" xmlns="http://www.w3.org/2000/svg" xmlns:xlink="http://www.w3.org/1999/xlink" viewBox="0 0 512 512" xml:space="preserve" fill="#000000" stroke="#000000"><g id="SVGRepo_bgCarrier" stroke-width="0"></g><g id="SVGRepo_tracerCarrier" stroke-linecap="round" stroke-linejoin="round"></g><g id="SVGRepo_iconCarrier"> <path style="fill:#FFB657;" d="M198.592,221.82c0,0-2.071,19.882-0.836,21.117c1.235,1.235,6.912,4.693,8.272,4.693 c1.359,0,11.305-3.809,12.464-6.412c0.998-2.24,0.267-7.9-2.568-11.305c-3.257-3.909-2.836-10.778-2.836-10.778L198.592,221.82z"></path> <g> <path style="fill:#3E3D43;" d="M221.557,444.023c0,0-33.646,32.871-26.347,37.463c10.166,6.396,51.482-19.998,51.482-22.115 c0-2.118-2.927-22.69-2.927-22.69L221.557,444.023z"></path> <path style="fill:#3E3D43;" d="M267.164,469.315c0,0-32.478,35.447-23.084,41.741c9.978,6.685,48.219-24.276,48.219-26.393 c0-2.117-2.926-22.69-2.926-22.69L267.164,469.315z"></path> </g> <path style="fill:#1D1D1F;" d="M214.347,240.216l-0.745,207.398c0,0-0.478,6.083,15.739,6.083s17.074-7.758,17.074-7.758 l4.321-150.242l0.788,0.113l8.49,177.633c0,0-1.003,4.762,15.214,4.762c16.217,0,17.074-7.758,17.074-7.758l1.568-223.21 L214.347,240.216z"></path> <g> <path style="fill:#2E2E30;" d="M225.783,82.831c-2.381-0.252-16.479,2.489-19.202,24.12 c-0.981,7.795-10.682,113.147-10.682,113.147c0,6.807,14.673,13.623,19.666,8.631c0.748-0.748,9.272-36.634,9.623-67.086 C225.638,122.696,242.363,84.585,225.783,82.831z"></path> <path style="fill:#2E2E30;" d="M208.143,237.343c0,0,1.587-33.542,2.119-65.688c0.446-26.975-2.241-53.605-2.119-60.317 c0.303-16.64,10.773-28.418,16.894-28.522c0,0,42.819,3.524,78.584,31.342c0,0-5.682,139.789-9.234,143.34 C285.944,265.942,220.343,268.318,208.143,237.343z"></path> </g> <path style="fill:#1D1D1F;" d="M209.986,185.012l-1.138-59.234v-0.001l-3.425,103.689c1.011,0.357,2.033,0.616,3.034,0.781 C208.854,220.925,209.536,203.552,209.986,185.012z"></path> <path style="fill:#3E3D43;" d="M225.4,180.728l35.905,6.317l17.242-31.985l-9.076-3.001l10.998-5.038c0,0,5.959-36.45,3.576-43.599 c-7.993-23.979-42.188-20.018-52.845-9.361c-10.657,10.657-17.759,33.339-17.759,33.339l10.657,7.992l-11.989,1.332L225.4,180.728z"></path> <path style="fill:#AD2201;" d="M242.758,91.505c0,0-12.043,3.416-13.376,30.058c-0.571,11.406-8.161,118.784-8.968,130.198 c9.647,6.417,22.903,9.667,35.587,10.781c3.146-112.044,21.894-154.199,19.92-161.113c-0.631-2.208-1.405-3.841-2.217-5.071 c-3.101-1.39-6.155-2.643-9.126-3.768L242.758,91.505z"></path> <path style="fill:#FFB657;" d="M241.574,74.882c0,0-2.253,17.017-3.328,26.368c-0.796,6.917,11.427,11.375,20.768,8.437 s13.115-9.846,13.115-9.846c-4.406-14.839-4.12-36.349-4.12-36.349L241.574,74.882z"></path> <path style="fill:#FEC377;" d="M222.636,46.817c0,0,2.132,31.967,9.819,37.676c7.686,5.709,31.777,0.235,45.177-22.575 c11.178-19.029,6.514-56.356-17.514-60.313C232.051-3.017,220.952,18.209,222.636,46.817z"></path> <path style="fill:#3E3D43;" d="M286.08,27.769c-0.868-7.708-10.487-27.918-27.915-27.768c-7.591,0.066-15.592,1.118-22.123,4.985 c-6.348,3.758-11.626,9.57-14.122,16.512c-2.494,6.942-1.148,15.543,4.488,20.303c4.311,3.642,23.142-6.593,28.736-7.34 c3.766-0.503,9.948,21.508,10.97,32.471c1.06-7.57,3.175-17.907,6.885-22.56c1.871,6.843-2.936,19.941-3.278,28.28 C276.799,65.183,289.226,55.697,286.08,27.769z"></path> <path style="fill:#FFB657;" d="M294.562,269.255c0,0-0.372,12.161-0.029,14.481c0.342,2.32,2.845,4.625,2.845,4.625 s-0.226,5.619,1.952,7.238c2.179,1.619,14.799-4.513,16.736-6.5c2.722-2.793-0.616-22.922-0.616-22.922 S297.715,259.094,294.562,269.255z"></path> <path style="fill:#2E2E30;" d="M303.621,114.158c0,0-13.316,3.16-13.95,19.01c-0.634,15.849,3.699,138.103,3.699,138.103 s9.442,8.88,24.423-2.616c0,0,0.102-73.277-0.055-82.624C316.76,127.812,314.152,120.507,303.621,114.158z"></path> <path style="fill:#1D1D1F;" d="M289.754,150.498l-1.562,111.069c1.797-0.802,3.39-1.738,4.745-2.799 C292.095,234.216,290.279,179.558,289.754,150.498z"></path> <g> <path style="fill:#CD2A01;" d="M270.952,95.277c0,0,0.467,1.524-0.652,2.643c-2.613,2.614-11.604,8.534-22.565,11.231l5.019,16.622 c0,0,22.49-16.865,22.118-24.52c-0.307-6.316-4.665-9.749-4.665-9.749L270.952,95.277z"></path> <path style="fill:#CD2A01;" d="M239.044,94.605c0,0-3.128,3.666-5.234,10.685c-2.105,7.018,2.617,16.844,2.617,16.844l6.803-14.059 c0,0-4.382-3.286-4.683-5.395C238.246,100.571,239.044,94.605,239.044,94.605z"></path> </g> <path style="fill:#FEC377;" d="M268.317,59.989c0,0,2.509-17.628,7.731-17.861c3.682-0.165,5.286,7.444,2.579,13.293 c-2.706,5.849-10.31,11.305-10.31,11.305L268.317,59.989L268.317,59.989z"></path> </g></svg>