<svg fill="#000000" height="200px" width="200px" version="1.1" id="Capa_1" xmlns="http://www.w3.org/2000/svg" xmlns:xlink="http://www.w3.org/1999/xlink" viewBox="0 0 330 330" xml:space="preserve"><g id="SVGRepo_bgCarrier" stroke-width="0"></g><g id="SVGRepo_tracerCarrier" stroke-linecap="round" stroke-linejoin="round"></g><g id="SVGRepo_iconCarrier"> <g> <path d="M15,149.999h30h80h80h80h30c8.284,0,15-6.716,15-15c0-8.284-6.716-15-15-15h-15v-45c0-4.721-2.223-9.167-6-12l-40-30 c-5.334-4-12.666-4-18,0l-31,23.25L174,33c-5.334-4-12.666-4-18,0l-31,23.25L94,33c-5.334-4-12.666-4-18,0L36,63 c-3.777,2.833-6,7.279-6,12v45H15c-8.284,0-15,6.716-15,15C0,143.284,6.716,149.999,15,149.999z M245,63.75l25,18.749v37.5h-50 v-37.5L245,63.75z M165,63.75l25,18.749v37.5h-50v-37.5L165,63.75z M60,82.499L85,63.75l25,18.749v37.5H60V82.499z"></path> <path d="M315,270h-15v-45c0-4.721-2.223-9.167-6-12l-40-30c-5.334-4-12.666-4-18,0l-31,23.25L174,183c-5.334-4-12.666-4-18,0 l-31,23.25L94,183c-5.334-4-12.666-4-18,0l-40,30c-3.777,2.833-6,7.279-6,12v45H15c-8.284,0-15,6.716-15,15s6.716,15,15,15h30h80 h80h80h30c8.284,0,15-6.716,15-15S323.284,270,315,270z M60,232.5l25-18.75l25,18.75V270H60V232.5z M140,232.5l25-18.75l25,18.75 V270h-50V232.5z M220,270v-37.5l25-18.75l25,18.75V270H220z"></path> </g> </g></svg>