<svg fill="#000000" height="200px" width="200px" version="1.1" id="Capa_1" xmlns="http://www.w3.org/2000/svg" xmlns:xlink="http://www.w3.org/1999/xlink" viewBox="0 0 397.665 397.665" xml:space="preserve"><g id="SVGRepo_bgCarrier" stroke-width="0"></g><g id="SVGRepo_tracerCarrier" stroke-linecap="round" stroke-linejoin="round"></g><g id="SVGRepo_iconCarrier"> <path d="M194.461,279.318l-8.884-73.284c-0.599-4.936-5.082-8.456-10.018-7.852c-4.935,0.598-8.45,5.083-7.852,10.018l7.678,63.338 h-4.325c-0.135-0.004-0.268-0.004-0.4,0h-60.788c-0.134-0.004-0.267-0.004-0.4,0h-4.318l12.087-99.7 c0.598-4.935-2.917-9.42-7.852-10.018c-4.94-0.606-9.419,2.917-10.018,7.852L86.081,279.318c-0.03,0.222-0.052,0.447-0.066,0.674 c-0.065,1.058,0.057,2.088,0.339,3.058c0.373,1.285,1.024,2.452,1.885,3.431c0.002,0.002,0.005,0.005,0.007,0.008 c0,0,0,0.001,0.001,0.001c0.881,1,1.984,1.809,3.246,2.341c0.006,0.002,0.011,0.005,0.017,0.007h0 c0.91,0.383,1.896,0.621,2.929,0.684c0.234,0.016,0.466,0.022,0.698,0.018h7.683l24.943,90.122h-19.457c-4.971,0-9,4.029-9,9 s4.029,9,9,9h31.006c0.092,0.003,0.183,0.004,0.275,0.004c0.091,0,0.183-0.001,0.275-0.004h32.37c4.971,0,9-4.029,9-9s-4.029-9-9-9 h-19.48l24.959-90.122h7.691c0.227,0.003,0.457-0.002,0.688-0.017c1.045-0.063,2.042-0.304,2.96-0.692 c1.259-0.532,2.362-1.34,3.242-2.338c0.001-0.002,0.002-0.003,0.004-0.004c0.001-0.002,0.003-0.004,0.004-0.006 c0.861-0.979,1.513-2.146,1.886-3.431c0.282-0.97,0.404-2.001,0.339-3.059C194.514,279.765,194.492,279.541,194.461,279.318z M140.26,357.33l-18.763-67.792h37.538L140.26,357.33z M294.934,256.337c20.194,0,36.624-16.43,36.624-36.624 c0-20.195-16.43-36.625-36.624-36.625s-36.624,16.43-36.624,36.625C258.31,239.907,274.739,256.337,294.934,256.337z M294.934,201.088c10.27,0,18.624,8.355,18.624,18.625s-8.354,18.624-18.624,18.624c-10.269,0-18.624-8.354-18.624-18.624 S284.665,201.088,294.934,201.088z M359.806,335.908l-20.234-57.065c-1.273-3.592-4.671-5.992-8.482-5.992h-10.708 c-0.125-0.002-0.25-0.002-0.376,0h-50.14c-0.127-0.002-0.254-0.002-0.381,0h-16.395l-42.582-129.944 c-6.063-18.211-15.34-40.509-33.429-51.559c-0.352-0.225-0.722-0.426-1.109-0.603c-0.971-0.444-1.988-0.701-3.009-0.783 c-1.339-0.107-2.663,0.086-3.88,0.543c-1.229,0.458-2.363,1.187-3.307,2.16c-0.713,0.733-1.309,1.599-1.746,2.571 c-0.171,0.378-0.313,0.763-0.429,1.152l-31.906,100.122c-1.509,4.735,1.106,9.798,5.843,11.308 c4.736,1.507,9.799-1.106,11.308-5.843l27.813-87.28c7.998,9.61,13.246,23.308,16.758,33.856l44.599,136.102 c1.212,3.697,4.662,6.197,8.553,6.197h15.98l21.008,88.81h-10.934c-4.971,0-9,4.029-9,9s4.029,9,9,9h22.038 c0.088,0.003,0.177,0.004,0.266,0.004c0.005,0.002,0.012,0,0.016,0c0.089,0,0.178-0.001,0.266-0.004h22.037c4.971,0,9-4.029,9-9 s-4.029-9-9-9h-10.933l19.973-84.431l16.557,46.694c1.662,4.685,6.807,7.138,11.49,5.475 C359.016,345.737,361.467,340.593,359.806,335.908z M294.934,349.566l-13.889-58.716h27.779L294.934,349.566z M140.271,80.108 c22.086,0,40.054-17.969,40.054-40.055S162.357,0,140.271,0c-22.086,0-40.055,17.968-40.055,40.054S118.185,80.108,140.271,80.108z M140.271,18c12.161,0,22.054,9.894,22.054,22.054c0,12.161-9.894,22.055-22.054,22.055c-12.161,0-22.055-9.894-22.055-22.055 C118.216,27.894,128.11,18,140.271,18z M87.111,148.593l-32.23,96.824c-1.256,3.772-4.769,6.16-8.538,6.16 c-0.943,0-1.901-0.149-2.844-0.464c-4.716-1.569-7.267-6.665-5.696-11.382l32.23-96.825c6.086-18.275,15.406-40.664,33.619-51.675 c4.223-2.554,9.71-1.227,12.305,2.959l18.817,29.617c2.665,4.195,1.425,9.757-2.771,12.423c-4.195,2.663-9.758,1.425-12.423-2.771 l-13.49-21.233C96.836,121.84,90.948,137.07,87.111,148.593z"></path> </g></svg>